<?xml version="1.0" encoding="utf-8"?>
<!-- Generator: Adobe Illustrator 22.0.1, SVG Export Plug-In . SVG Version: 6.00 Build 0)  -->
<svg version="1.1" id="Layer_1" xmlns="http://www.w3.org/2000/svg" xmlns:xlink="http://www.w3.org/1999/xlink" x="0px" y="0px"
	 viewBox="0 0 368.5 48" style="enable-background:new 0 0 368.5 48;" xml:space="preserve">
<style type="text/css">
	.st0{fill:#FFFFFF;}
</style>
<g>
	<path class="st0" d="M17.7,32.4c-1.3,0.7-2.7,1-4.2,1c-1.6,0-3.1-0.3-4.3-0.8C7.9,32,6.8,31.2,6,30.2c-0.8-1-1.5-2.2-1.9-3.6
		c-0.4-1.4-0.6-3-0.6-4.7c0-1.8,0.2-3.4,0.7-4.8s1.2-2.7,2-3.7c0.9-1,1.9-1.8,3.1-2.3c1.2-0.6,2.6-0.8,4.1-0.8c1.7,0,3.2,0.3,4.3,1
		c1.2,0.7,2.2,1.6,3,2.7l-3,2.2c-0.6-0.8-1.2-1.4-1.9-1.8c-0.7-0.4-1.5-0.7-2.5-0.7c-0.8,0-1.6,0.2-2.3,0.6s-1.2,0.9-1.7,1.6
		c-0.5,0.7-0.8,1.6-1.1,2.6c-0.2,1-0.4,2.1-0.4,3.3c0,1.2,0.1,2.4,0.4,3.4s0.6,1.8,1.1,2.5c0.5,0.7,1,1.2,1.7,1.6
		c0.7,0.4,1.5,0.6,2.3,0.6c1,0,1.8-0.3,2.6-0.8c0.8-0.5,1.5-1.2,2.1-2.2l2.8,2.4C20.1,30.8,19,31.8,17.7,32.4z"/>
	<path class="st0" d="M23.8,13.5v-3.3H28v3.3H23.8z M23.8,33V16.1H28V33H23.8z"/>
	<path class="st0" d="M40.4,33h-3.7l-6.4-16.9h4.4l3.9,11.6l4-11.6h4.3L40.4,33z"/>
	<path class="st0" d="M49.2,13.5v-3.3h4.2v3.3H49.2z M49.2,33V16.1h4.2V33H49.2z"/>
	<path class="st0" d="M57.5,33V10.2h4.2V33H57.5z"/>
	<path class="st0" d="M88.3,33h-3.6l-2.8-9.9l-3,9.9h-3.6l-4.7-16.9h4.2l2.6,10.9l2.8-9.5h3.4l2.7,9.5l2.9-10.9h4L88.3,33z"/>
	<path class="st0" d="M111.4,24.5c0,1.3-0.2,2.6-0.6,3.6c-0.4,1.1-1,2-1.7,2.8c-0.7,0.8-1.6,1.4-2.6,1.8s-2.1,0.6-3.4,0.6
		c-1.2,0-2.4-0.2-3.4-0.6c-1-0.4-1.9-1-2.6-1.8c-0.7-0.8-1.3-1.7-1.7-2.8s-0.6-2.3-0.6-3.6c0-1.3,0.2-2.5,0.6-3.6s0.9-2,1.7-2.8
		c0.7-0.8,1.6-1.4,2.6-1.8c1-0.4,2.1-0.6,3.4-0.6c1.2,0,2.3,0.2,3.4,0.6c1,0.4,1.9,1,2.6,1.8c0.7,0.8,1.3,1.7,1.7,2.8
		C111.2,22,111.4,23.2,111.4,24.5z M107.1,24.5c0-1.8-0.4-3.2-1.1-4.2s-1.7-1.4-2.8-1.4c-1.1,0-2.1,0.5-2.8,1.4s-1.1,2.3-1.1,4.2
		c0,1.8,0.4,3.2,1.1,4.2c0.7,1,1.7,1.4,2.8,1.4c1.2,0,2.1-0.5,2.8-1.4C106.7,27.7,107.1,26.3,107.1,24.5z"/>
	<path class="st0" d="M124.6,20.1c-0.3-0.2-0.5-0.3-0.8-0.4s-0.6-0.2-1.1-0.2c-0.7,0-1.3,0.2-2,0.7c-0.7,0.5-1.3,1-1.8,1.6V33h-4.2
		V16.1h4.1v2.5c0.6-0.8,1.4-1.4,2.2-2c0.8-0.6,1.7-0.8,2.5-0.8c0.5,0,1,0,1.4,0.1c0.4,0.1,0.9,0.3,1.4,0.6L124.6,20.1z"/>
	<path class="st0" d="M138.7,33l-4.8-7.5l-1.1,1.2V33h-4.2V10.2h4.2v11.4l5.1-5.5h4.9l-6.1,6.5l6.8,10.4H138.7z"/>
	<path class="st0" d="M158.4,27.9c0,0.9-0.2,1.7-0.6,2.4c-0.4,0.7-0.9,1.2-1.6,1.7c-0.7,0.4-1.4,0.8-2.3,1c-0.9,0.2-1.7,0.3-2.6,0.3
		c-1.3,0-2.5-0.2-3.7-0.6s-2.2-1-3.2-1.9l1.9-2.4c0.7,0.6,1.6,1.1,2.5,1.5c0.9,0.4,1.7,0.5,2.5,0.5c0.9,0,1.6-0.2,2.2-0.5
		c0.5-0.4,0.8-0.8,0.8-1.3c0-0.5-0.2-0.9-0.6-1.2s-1.1-0.6-2.1-0.9l-1.8-0.6c-0.7-0.2-1.3-0.5-1.9-0.8c-0.6-0.3-1-0.6-1.4-1
		c-0.4-0.4-0.7-0.8-0.9-1.3c-0.2-0.5-0.3-1.1-0.3-1.8c0-0.6,0.1-1.2,0.4-1.8c0.2-0.6,0.6-1.1,1.2-1.6c0.5-0.5,1.2-0.9,2.1-1.2
		c0.9-0.3,1.9-0.5,3.2-0.5c1.2,0,2.3,0.2,3.3,0.5c1,0.4,2,0.9,3,1.7l-1.9,2.5c-0.7-0.6-1.4-1-2.2-1.3c-0.7-0.3-1.5-0.4-2.2-0.4
		c-0.8,0-1.4,0.1-1.9,0.4c-0.5,0.3-0.7,0.7-0.7,1.2c0,0.5,0.2,0.8,0.6,1.1s0.9,0.5,1.6,0.8l1.8,0.6c0.8,0.3,1.5,0.5,2.1,0.8
		c0.6,0.3,1.1,0.6,1.6,1c0.4,0.4,0.8,0.9,1,1.4C158.3,26.6,158.4,27.2,158.4,27.9z"/>
	<path class="st0" d="M181.6,32.4c-1.3,0.7-2.7,1-4.2,1c-1.6,0-3.1-0.3-4.3-0.8c-1.3-0.6-2.3-1.3-3.1-2.3c-0.8-1-1.5-2.2-1.9-3.6
		c-0.4-1.4-0.6-3-0.6-4.7c0-1.8,0.2-3.4,0.7-4.8s1.2-2.7,2-3.7c0.9-1,1.9-1.8,3.1-2.3c1.2-0.6,2.6-0.8,4.1-0.8c1.7,0,3.2,0.3,4.3,1
		c1.2,0.7,2.2,1.6,3,2.7l-3,2.2c-0.6-0.8-1.2-1.4-1.9-1.8c-0.7-0.4-1.5-0.7-2.5-0.7c-0.8,0-1.6,0.2-2.3,0.6s-1.2,0.9-1.7,1.6
		c-0.5,0.7-0.8,1.6-1.1,2.6c-0.2,1-0.4,2.1-0.4,3.3c0,1.2,0.1,2.4,0.4,3.4s0.6,1.8,1.1,2.5c0.5,0.7,1,1.2,1.7,1.6
		c0.7,0.4,1.5,0.6,2.3,0.6c1,0,1.8-0.3,2.6-0.8c0.8-0.5,1.5-1.2,2.1-2.2l2.8,2.4C184,30.8,182.9,31.8,181.6,32.4z"/>
	<path class="st0" d="M203.5,24.5c0,1.3-0.2,2.6-0.6,3.6s-1,2-1.7,2.8c-0.7,0.8-1.6,1.4-2.6,1.8s-2.1,0.6-3.4,0.6
		c-1.2,0-2.4-0.2-3.4-0.6s-1.9-1-2.6-1.8c-0.7-0.8-1.3-1.7-1.7-2.8s-0.6-2.3-0.6-3.6c0-1.3,0.2-2.5,0.6-3.6s0.9-2,1.7-2.8
		c0.7-0.8,1.6-1.4,2.6-1.8c1-0.4,2.1-0.6,3.4-0.6c1.2,0,2.3,0.2,3.4,0.6c1,0.4,1.9,1,2.6,1.8c0.7,0.8,1.3,1.7,1.7,2.8
		S203.5,23.2,203.5,24.5z M199.2,24.5c0-1.8-0.4-3.2-1.1-4.2s-1.7-1.4-2.8-1.4c-1.1,0-2.1,0.5-2.8,1.4s-1.1,2.3-1.1,4.2
		c0,1.8,0.4,3.2,1.1,4.2c0.7,1,1.7,1.4,2.8,1.4c1.2,0,2.1-0.5,2.8-1.4C198.8,27.7,199.2,26.3,199.2,24.5z"/>
	<path class="st0" d="M226.4,33V21.9c0-1-0.2-1.7-0.5-2c-0.4-0.3-0.8-0.5-1.4-0.5c-0.3,0-0.7,0.1-1,0.2c-0.4,0.1-0.7,0.3-1,0.4
		s-0.6,0.4-0.9,0.6c-0.3,0.2-0.5,0.4-0.7,0.6V33h-4.2V22.4c0-1-0.1-1.8-0.4-2.3c-0.3-0.5-0.8-0.8-1.5-0.8c-0.6,0-1.2,0.2-1.8,0.5
		c-0.7,0.3-1.3,0.7-1.8,1.3V33h-4.2V16.1h4V18c0.4-0.3,0.8-0.6,1.2-0.9c0.4-0.3,0.9-0.5,1.3-0.7c0.5-0.2,0.9-0.4,1.4-0.5
		c0.5-0.1,1-0.2,1.4-0.2c1.1,0,2,0.2,2.7,0.7c0.7,0.5,1.2,1.1,1.5,1.8c0.4-0.3,0.8-0.6,1.2-0.9c0.4-0.3,0.9-0.6,1.3-0.8
		c0.5-0.2,1-0.4,1.5-0.6c0.5-0.1,1-0.2,1.6-0.2c1.5,0,2.7,0.5,3.5,1.4c0.8,0.9,1.2,2.2,1.2,3.7V33H226.4z"/>
	<path class="st0" d="M250.2,24.5c0,1.4-0.2,2.6-0.5,3.7c-0.3,1.1-0.8,2-1.4,2.8c-0.6,0.8-1.3,1.3-2.2,1.7c-0.8,0.4-1.7,0.6-2.7,0.6
		c-1,0-2-0.2-2.7-0.6c-0.8-0.4-1.5-0.9-2-1.5v7.8h-4.2v-23h4v2c0.7-0.8,1.5-1.3,2.3-1.7c0.8-0.4,1.7-0.6,2.7-0.6
		c1,0,1.9,0.2,2.8,0.6c0.8,0.4,1.6,1,2.2,1.8c0.6,0.8,1.1,1.7,1.4,2.8S250.2,23.2,250.2,24.5z M245.9,24.5c0-0.8-0.1-1.5-0.2-2.2
		c-0.1-0.7-0.4-1.2-0.7-1.7c-0.3-0.5-0.7-0.9-1.1-1.2c-0.5-0.3-1-0.4-1.6-0.4c-0.7,0-1.4,0.2-2,0.6c-0.6,0.4-1.2,0.8-1.6,1.4v7.3
		c0.4,0.5,0.9,0.9,1.6,1.3s1.3,0.6,2,0.6c0.6,0,1.2-0.1,1.6-0.4c0.5-0.3,0.8-0.7,1.1-1.2c0.3-0.5,0.5-1.1,0.7-1.8
		C245.8,26,245.9,25.3,245.9,24.5z"/>
	<path class="st0" d="M263.4,33v-1.8c-0.9,0.7-1.8,1.3-2.7,1.6s-1.8,0.5-2.8,0.5c-0.8,0-1.6-0.1-2.2-0.4s-1.2-0.6-1.6-1
		c-0.4-0.4-0.8-1-1-1.6c-0.2-0.6-0.3-1.2-0.3-1.9c0-1.1,0.2-2,0.6-2.7c0.4-0.7,1-1.3,1.8-1.7c0.8-0.4,1.7-0.8,2.7-1
		c1-0.2,2.2-0.4,3.5-0.6l1.9-0.2v-0.8c0-0.9-0.3-1.6-0.8-2c-0.6-0.5-1.3-0.7-2.2-0.7s-1.8,0.2-2.6,0.6c-0.8,0.4-1.6,0.9-2.4,1.6
		l-2-2.4c1.1-1,2.3-1.7,3.5-2.1c1.2-0.4,2.5-0.6,3.7-0.6c1.2,0,2.2,0.1,3.1,0.4c0.9,0.3,1.6,0.7,2.2,1.2c0.6,0.5,1,1.1,1.3,1.9
		c0.3,0.7,0.4,1.5,0.4,2.4V33H263.4z M263.2,24.8L262,25c-1.8,0.2-3.1,0.6-3.9,1.1c-0.8,0.5-1.1,1.2-1.1,2.1c0,0.6,0.2,1.2,0.6,1.6
		c0.4,0.4,1,0.6,1.6,0.6c0.7,0,1.3-0.2,2-0.5c0.6-0.3,1.3-0.7,2-1.3V24.8z"/>
	<path class="st0" d="M281.8,33V22.5c0-1-0.2-1.8-0.5-2.3s-0.9-0.8-1.8-0.8c-0.7,0-1.4,0.2-2.1,0.6c-0.7,0.4-1.4,0.8-1.9,1.2V33
		h-4.2V16.1h4V18c0.8-0.6,1.7-1.1,2.6-1.6s2-0.7,3.1-0.7c1.7,0,2.9,0.5,3.8,1.4s1.3,2.2,1.3,3.7V33H281.8z"/>
	<path class="st0" d="M297.8,34.6c-0.3,0.8-0.6,1.5-1,2.1s-0.8,1-1.3,1.4s-1.1,0.6-1.9,0.8c-0.7,0.2-1.6,0.2-2.6,0.2
		c-0.4,0-0.8,0-1.3-0.1s-0.9-0.1-1.2-0.2v-3.3c0.3,0.1,0.7,0.1,1.2,0.2c0.4,0.1,0.9,0.1,1.2,0.1c0.8,0,1.4-0.2,1.9-0.6
		s0.9-1,1.3-1.9l0.5-1.4l-6.4-15.8h4.4l4.1,10.9l3.6-10.9h4.2L297.8,34.6z"/>
	<path class="st0" d="M313.6,33V10.6h4.4v18.7h9.6V33H313.6z"/>
	<path class="st0" d="M338.9,14.2V33h-4.4V14.2h-6.1v-3.6H345v3.6H338.9z"/>
	<path class="st0" d="M365.6,21.9c0,1.6-0.2,3-0.6,4.4c-0.4,1.4-1,2.5-1.7,3.5c-0.8,1-1.8,1.8-3,2.3c-1.2,0.6-2.7,0.9-4.3,0.9h-8.3
		V10.6h8c1.6,0,3.1,0.3,4.3,0.8c1.2,0.5,2.3,1.3,3.1,2.2c0.8,1,1.4,2.2,1.9,3.5C365.3,18.6,365.6,20.1,365.6,21.9z M361.1,21.9
		c0-2.8-0.5-4.8-1.6-5.9c-1.1-1.2-2.7-1.8-4.7-1.8H352v15.3h3c0.9,0,1.7-0.1,2.5-0.4c0.8-0.3,1.4-0.7,1.9-1.3
		c0.5-0.6,0.9-1.4,1.2-2.3C360.9,24.5,361.1,23.3,361.1,21.9z"/>
</g>
</svg>
